{"asset":{"version":"2.0","generator":"Blockbench 5.1.4 glTF exporter"},"scenes":[{"nodes":[14],"name":"blockbench_export"}],"scene":0,"nodes":[{"translation":[0,-0.25,0],"name":"mesh","mesh":0},{"name":"mesh","mesh":1},{"translation":[-0.25,0.25,0],"name":"left leg","children":[1]},{"name":"mesh","mesh":2},{"translation":[0,0.25,0],"name":"right leg","children":[3]},{"translation":[0.125,-0.5,0],"name":"legs","children":[2,4]},{"translation":[0,0.5,0],"name":"torso","children":[0,5]},{"translation":[0,0,0.01874999999999999],"name":"mesh","mesh":3},{"translation":[0,0.5,0],"name":"head","children":[7]},{"name":"mesh","mesh":4},{"translation":[0.4375,0.5625,0],"name":"right arm","children":[9]},{"name":"mesh","mesh":5},{"translation":[0.0625,0.5625,0],"name":"left arm","children":[11]},{"translation":[-0.25,-0.0625,0],"name":"arms","children":[10,12]},{"name":"lilguy","children":[6,8,13]}],"bufferViews":[{"buffer":0,"byteOffset":0,"byteLength":288,"target":34962,"byteStride":12},{"buffer":0,"byteOffset":288,"byteLength":288,"target":34962,"byteStride":12},{"buffer":0,"byteOffset":576,"byteLength":192,"target":34962,"byteStride":8},{"buffer":0,"byteOffset":768,"byteLength":72,"target":34963},{"buffer":0,"byteOffset":840,"byteLength":288,"target":34962,"byteStride":12},{"buffer":0,"byteOffset":1128,"byteLength":288,"target":34962,"byteStride":12},{"buffer":0,"byteOffset":1416,"byteLength":192,"target":34962,"byteStride":8},{"buffer":0,"byteOffset":1608,"byteLength":72,"target":34963},{"buffer":0,"byteOffset":1680,"byteLength":288,"target":34962,"byteStride":12},{"buffer":0,"byteOffset":1968,"byteLength":288,"target":34962,"byteStride":12},{"buffer":0,"byteOffset":2256,"byteLength":192,"target":34962,"byteStride":8},{"buffer":0,"byteOffset":2448,"byteLength":72,"target":34963},{"buffer":0,"byteOffset":2520,"byteLength":288,"target":34962,"byteStride":12},{"buffer":0,"byteOffset":2808,"byteLength":288,"target":34962,"byteStride":12},{"buffer":0,"byteOffset":3096,"byteLength":192,"target":34962,"byteStride":8},{"buffer":0,"byteOffset":3288,"byteLength":72,"target":34963},{"buffer":0,"byteOffset":3360,"byteLength":288,"target":34962,"byteStride":12},{"buffer":0,"byteOffset":3648,"byteLength":288,"target":34962,"byteStride":12},{"buffer":0,"byteOffset":3936,"byteLength":192,"target":34962,"byteStride":8},{"buffer":0,"byteOffset":4128,"byteLength":72,"target":34963},{"buffer":0,"byteOffset":4200,"byteLength":288,"target":34962,"byteStride":12},{"buffer":0,"byteOffset":4488,"byteLength":288,"target":34962,"byteStride":12},{"buffer":0,"byteOffset":4776,"byteLength":192,"target":34962,"byteStride":8},{"buffer":0,"byteOffset":4968,"byteLength":72,"target":34963},{"buffer":0,"byteOffset":5040,"byteLength":16},{"buffer":0,"byteOffset":5056,"byteLength":64},{"buffer":0,"byteOffset":5120,"byteLength":16},{"buffer":0,"byteOffset":5136,"byteLength":64},{"buffer":0,"byteOffset":5200,"byteLength":16},{"buffer":0,"byteOffset":5216,"byteLength":64},{"buffer":0,"byteOffset":5280,"byteLength":16},{"buffer":0,"byteOffset":5296,"byteLength":64},{"buffer":0,"byteOffset":5360,"byteLength":20},{"buffer":0,"byteOffset":5380,"byteLength":80},{"buffer":0,"byteOffset":5460,"byteLength":20},{"buffer":0,"byteOffset":5480,"byteLength":80},{"buffer":0,"byteOffset":5560,"byteLength":44},{"buffer":0,"byteOffset":5604,"byteLength":176},{"buffer":0,"byteOffset":5780,"byteLength":44},{"buffer":0,"byteOffset":5824,"byteLength":176},{"buffer":0,"byteOffset":6000,"byteLength":12},{"buffer":0,"byteOffset":6012,"byteLength":48},{"buffer":0,"byteOffset":6060,"byteLength":20},{"buffer":0,"byteOffset":6080,"byteLength":60},{"buffer":0,"byteOffset":6140,"byteLength":56},{"buffer":0,"byteOffset":6196,"byteLength":224},{"buffer":0,"byteOffset":6420,"byteLength":48},{"buffer":0,"byteOffset":6468,"byteLength":192},{"buffer":0,"byteOffset":6660,"byteLength":12},{"buffer":0,"byteOffset":6672,"byteLength":36},{"buffer":0,"byteOffset":6708,"byteLength":8},{"buffer":0,"byteOffset":6716,"byteLength":32},{"buffer":0,"byteOffset":6748,"byteLength":8},{"buffer":0,"byteOffset":6756,"byteLength":24},{"buffer":0,"byteOffset":6780,"byteLength":56},{"buffer":0,"byteOffset":6836,"byteLength":224},{"buffer":0,"byteOffset":7060,"byteLength":56},{"buffer":0,"byteOffset":7116,"byteLength":224},{"buffer":0,"byteOffset":7340,"byteLength":28},{"buffer":0,"byteOffset":7368,"byteLength":112},{"buffer":0,"byteOffset":7480,"byteLength":56},{"buffer":0,"byteOffset":7536,"byteLength":168},{"buffer":0,"byteOffset":7704,"byteLength":52},{"buffer":0,"byteOffset":7756,"byteLength":208},{"buffer":0,"byteOffset":7964,"byteLength":56},{"buffer":0,"byteOffset":8020,"byteLength":168},{"buffer":0,"byteOffset":8188,"byteLength":4},{"buffer":0,"byteOffset":8192,"byteLength":12}],"buffers":[{"byteLength":8204,"uri":"data:application/octet-stream;base64,"}],"accessors":[{"bufferView":0,"componentType":5126,"count":24,"max":[0.1875,0.25,0.125],"min":[-0.1875,0,-0.125],"type":"VEC3"},{"bufferView":1,"componentType":5126,"count":24,"max":[1,1,1],"min":[-1,-1,-1],"type":"VEC3"},{"bufferView":2,"componentType":5126,"count":24,"max":[0.0625,0.0625],"min":[0,0],"type":"VEC2"},{"bufferView":3,"componentType":5123,"count":36,"max":[23],"min":[0],"type":"SCALAR"},{"bufferView":4,"componentType":5126,"count":24,"max":[0.0625,0,0.0625],"min":[-0.0625,-0.25,-0.0625],"type":"VEC3"},{"bufferView":5,"componentType":5126,"count":24,"max":[1,1,1],"min":[-1,-1,-1],"type":"VEC3"},{"bufferView":6,"componentType":5126,"count":24,"max":[0.0625,0.0625],"min":[0,0],"type":"VEC2"},{"bufferView":7,"componentType":5123,"count":36,"max":[23],"min":[0],"type":"SCALAR"},{"bufferView":8,"componentType":5126,"count":24,"max":[0.0625,0,0.0625],"min":[-0.0625,-0.25,-0.0625],"type":"VEC3"},{"bufferView":9,"componentType":5126,"count":24,"max":[1,1,1],"min":[-1,-1,-1],"type":"VEC3"},{"bufferView":10,"componentType":5126,"count":24,"max":[0.0625,0.0625],"min":[0,0],"type":"VEC2"},{"bufferView":11,"componentType":5123,"count":36,"max":[23],"min":[0],"type":"SCALAR"},{"bufferView":12,"componentType":5126,"count":24,"max":[0.125,0.25,0.14374999701976776],"min":[-0.125,0,-0.14374999701976776],"type":"VEC3"},{"bufferView":13,"componentType":5126,"count":24,"max":[1,1,1],"min":[-1,-1,-1],"type":"VEC3"},{"bufferView":14,"componentType":5126,"count":24,"max":[0.0625,0.0625],"min":[0,0],"type":"VEC2"},{"bufferView":15,"componentType":5123,"count":36,"max":[23],"min":[0],"type":"SCALAR"},{"bufferView":16,"componentType":5126,"count":24,"max":[0.125,0,0.0625],"min":[0,-0.375,-0.0625],"type":"VEC3"},{"bufferView":17,"componentType":5126,"count":24,"max":[1,1,1],"min":[-1,-1,-1],"type":"VEC3"},{"bufferView":18,"componentType":5126,"count":24,"max":[0.0625,0.0625],"min":[0,0],"type":"VEC2"},{"bufferView":19,"componentType":5123,"count":36,"max":[23],"min":[0],"type":"SCALAR"},{"bufferView":20,"componentType":5126,"count":24,"max":[0,0,0.0625],"min":[-0.125,-0.375,-0.0625],"type":"VEC3"},{"bufferView":21,"componentType":5126,"count":24,"max":[1,1,1],"min":[-1,-1,-1],"type":"VEC3"},{"bufferView":22,"componentType":5126,"count":24,"max":[0.0625,0.0625],"min":[0,0],"type":"VEC2"},{"bufferView":23,"componentType":5123,"count":36,"max":[23],"min":[0],"type":"SCALAR"},{"bufferView":24,"componentType":5126,"count":4,"max":[1],"min":[0],"type":"SCALAR"},{"bufferView":25,"componentType":5126,"count":4,"max":[0.4226182699203491,0,0,1],"min":[-0.4226182699203491,0,0,0.9063078165054321],"type":"VEC4"},{"bufferView":26,"componentType":5126,"count":4,"max":[1],"min":[0],"type":"SCALAR"},{"bufferView":27,"componentType":5126,"count":4,"max":[0.4226182699203491,0,0,1],"min":[-0.4226182699203491,0,0,0.9063078165054321],"type":"VEC4"},{"bufferView":28,"componentType":5126,"count":4,"max":[1],"min":[0],"type":"SCALAR"},{"bufferView":29,"componentType":5126,"count":4,"max":[0.4226182699203491,0,0,1],"min":[-0.4226182699203491,0,0,0.9063078165054321],"type":"VEC4"},{"bufferView":30,"componentType":5126,"count":4,"max":[1],"min":[0],"type":"SCALAR"},{"bufferView":31,"componentType":5126,"count":4,"max":[0.4226182699203491,0,0,1],"min":[-0.4226182699203491,0,0,0.9063078165054321],"type":"VEC4"},{"bufferView":32,"componentType":5126,"count":5,"max":[2],"min":[0],"type":"SCALAR"},{"bufferView":33,"componentType":5126,"count":5,"max":[0,0,0,1],"min":[0,0,-0.1736481785774231,0.9848077297210693],"type":"VEC4"},{"bufferView":34,"componentType":5126,"count":5,"max":[2],"min":[0],"type":"SCALAR"},{"bufferView":35,"componentType":5126,"count":5,"max":[0,0,0.1736481785774231,1],"min":[0,0,0,0.9848077297210693],"type":"VEC4"},{"bufferView":36,"componentType":5126,"count":11,"max":[2],"min":[0],"type":"SCALAR"},{"bufferView":37,"componentType":5126,"count":11,"max":[0,0.40274667739868164,0,1],"min":[-0.9713420867919922,0,-0.08464326709508896,5.604666134237976e-17],"type":"VEC4"},{"bufferView":38,"componentType":5126,"count":11,"max":[2],"min":[0],"type":"SCALAR"},{"bufferView":39,"componentType":5126,"count":11,"max":[0,0,0.09229595214128494,1],"min":[-0.9659258127212524,-0.4226182699203491,0,5.5495345464113164e-17],"type":"VEC4"},{"bufferView":40,"componentType":5126,"count":3,"max":[1.5],"min":[0],"type":"SCALAR"},{"bufferView":41,"componentType":5126,"count":3,"max":[0,0,0,1],"min":[0,0,0,1],"type":"VEC4"},{"bufferView":42,"componentType":5126,"count":5,"max":[2],"min":[0],"type":"SCALAR"},{"bufferView":43,"componentType":5126,"count":5,"max":[0,0.3125,0],"min":[0,0,0],"type":"VEC3"},{"bufferView":44,"componentType":5126,"count":14,"max":[0.75],"min":[0],"type":"SCALAR"},{"bufferView":45,"componentType":5126,"count":14,"max":[0.40274667739868164,0.19905492663383484,0.5651086568832397,0.9234722852706909],"min":[-0.5450122952461243,-0.11136358231306076,-0.6239590048789978,0.7734768986701965],"type":"VEC4"},{"bufferView":46,"componentType":5126,"count":12,"max":[0.75],"min":[0],"type":"SCALAR"},{"bufferView":47,"componentType":5126,"count":12,"max":[0,0,0.36243805289268494,1],"min":[0,0,-0.44228869676589966,0.8968727588653564],"type":"VEC4"},{"bufferView":48,"componentType":5126,"count":3,"max":[0.75],"min":[0],"type":"SCALAR"},{"bufferView":49,"componentType":5126,"count":3,"max":[0,0.5625,0],"min":[0,0.5625,0],"type":"VEC3"},{"bufferView":50,"componentType":5126,"count":2,"max":[0.125],"min":[0],"type":"SCALAR"},{"bufferView":51,"componentType":5126,"count":2,"max":[0,0,0,1],"min":[0,0,0,1],"type":"VEC4"},{"bufferView":52,"componentType":5126,"count":2,"max":[0.125],"min":[0],"type":"SCALAR"},{"bufferView":53,"componentType":5126,"count":2,"max":[-0.25,-0.0625,0],"min":[-0.25,-0.0625,0],"type":"VEC3"},{"bufferView":54,"componentType":5126,"count":14,"max":[0.75],"min":[0],"type":"SCALAR"},{"bufferView":55,"componentType":5126,"count":14,"max":[0.3013562262058258,0.03138524293899536,0.05800975114107132,1],"min":[-0.024376280605793,-0.3348511755466461,-0.6632241606712341,0.733349084854126],"type":"VEC4"},{"bufferView":56,"componentType":5126,"count":14,"max":[0.75],"min":[0],"type":"SCALAR"},{"bufferView":57,"componentType":5126,"count":14,"max":[0.5511044859886169,0.02969188056886196,0.6427876353263855,1],"min":[-0.0699353814125061,-0.15861554443836212,-0.014537625946104527,0.7516133785247803],"type":"VEC4"},{"bufferView":58,"componentType":5126,"count":7,"max":[0.2916699945926666],"min":[0],"type":"SCALAR"},{"bufferView":59,"componentType":5126,"count":7,"max":[0,0,0.9153114557266235,1],"min":[0,0,0,0.40274667739868164],"type":"VEC4"},{"bufferView":60,"componentType":5126,"count":14,"max":[0.75],"min":[0],"type":"SCALAR"},{"bufferView":61,"componentType":5126,"count":14,"max":[0.38486117124557495,0.625,0],"min":[0.25,0.4236111044883728,0],"type":"VEC3"},{"bufferView":62,"componentType":5126,"count":13,"max":[0.75],"min":[0],"type":"SCALAR"},{"bufferView":63,"componentType":5126,"count":13,"max":[0,0,0.16141244769096375,1],"min":[0,0,-0.9469301104545593,0.3214394748210907],"type":"VEC4"},{"bufferView":64,"componentType":5126,"count":14,"max":[0.75],"min":[0],"type":"SCALAR"},{"bufferView":65,"componentType":5126,"count":14,"max":[0.2643982172012329,0.6875,0],"min":[0.0625,0.4158564805984497,0],"type":"VEC3"},{"bufferView":66,"componentType":5126,"count":1,"max":[0],"min":[0],"type":"SCALAR"},{"bufferView":67,"componentType":5126,"count":1,"max":[-0.25,0,-0.375],"min":[-0.25,0,-0.375],"type":"VEC3"}],"materials":[{"pbrMetallicRoughness":{"metallicFactor":0,"roughnessFactor":1},"alphaMode":"MASK","alphaCutoff":0.05,"doubleSided":true},{"pbrMetallicRoughness":{"metallicFactor":0,"roughnessFactor":1},"alphaMode":"MASK","alphaCutoff":0.05,"doubleSided":true},{"pbrMetallicRoughness":{"metallicFactor":0,"roughnessFactor":1,"baseColorTexture":{"index":0}},"alphaMode":"MASK","alphaCutoff":0.05,"doubleSided":true}],"meshes":[{"primitives":[{"mode":4,"attributes":{"POSITION":0,"NORMAL":1,"TEXCOORD_0":2},"indices":3,"material":0}]},{"primitives":[{"mode":4,"attributes":{"POSITION":4,"NORMAL":5,"TEXCOORD_0":6},"indices":7,"material":1}]},{"primitives":[{"mode":4,"attributes":{"POSITION":8,"NORMAL":9,"TEXCOORD_0":10},"indices":11,"material":1}]},{"primitives":[{"mode":4,"attributes":{"POSITION":12,"NORMAL":13,"TEXCOORD_0":14},"indices":15,"material":2}]},{"primitives":[{"mode":4,"attributes":{"POSITION":16,"NORMAL":17,"TEXCOORD_0":18},"indices":19,"material":0}]},{"primitives":[{"mode":4,"attributes":{"POSITION":20,"NORMAL":21,"TEXCOORD_0":22},"indices":23,"material":0}]}],"textures":[{"sampler":0,"source":0,"name":"head"}],"samplers":[{"magFilter":9728,"minFilter":9728,"wrapS":33071,"wrapT":33071}],"images":[{"mimeType":"image/png","uri":"data:image/png;base64,"}],"animations":[{"name":"walk","samplers":[{"input":24,"output":25,"interpolation":"LINEAR"},{"input":26,"output":27,"interpolation":"LINEAR"},{"input":28,"output":29,"interpolation":"LINEAR"},{"input":30,"output":31,"interpolation":"LINEAR"}],"channels":[{"sampler":0,"target":{"node":2,"path":"rotation"}},{"sampler":1,"target":{"node":4,"path":"rotation"}},{"sampler":2,"target":{"node":10,"path":"rotation"}},{"sampler":3,"target":{"node":12,"path":"rotation"}}]},{"name":"dance","samplers":[{"input":32,"output":33,"interpolation":"LINEAR"},{"input":34,"output":35,"interpolation":"LINEAR"},{"input":36,"output":37,"interpolation":"LINEAR"},{"input":38,"output":39,"interpolation":"LINEAR"},{"input":40,"output":41,"interpolation":"LINEAR"},{"input":42,"output":43,"interpolation":"LINEAR"}],"channels":[{"sampler":0,"target":{"node":2,"path":"rotation"}},{"sampler":1,"target":{"node":4,"path":"rotation"}},{"sampler":2,"target":{"node":10,"path":"rotation"}},{"sampler":3,"target":{"node":12,"path":"rotation"}},{"sampler":4,"target":{"node":14,"path":"rotation"}},{"sampler":5,"target":{"node":14,"path":"translation"}}]},{"name":"Breakdance","samplers":[{"input":44,"output":45,"interpolation":"LINEAR"},{"input":46,"output":47,"interpolation":"LINEAR"},{"input":48,"output":49,"interpolation":"LINEAR"},{"input":50,"output":51,"interpolation":"LINEAR"},{"input":52,"output":53,"interpolation":"LINEAR"},{"input":54,"output":55,"interpolation":"LINEAR"},{"input":56,"output":57,"interpolation":"LINEAR"},{"input":58,"output":59,"interpolation":"LINEAR"},{"input":60,"output":61,"interpolation":"LINEAR"},{"input":62,"output":63,"interpolation":"LINEAR"},{"input":64,"output":65,"interpolation":"LINEAR"},{"input":66,"output":67,"interpolation":"LINEAR"}],"channels":[{"sampler":0,"target":{"node":6,"path":"rotation"}},{"sampler":1,"target":{"node":8,"path":"rotation"}},{"sampler":2,"target":{"node":8,"path":"translation"}},{"sampler":3,"target":{"node":13,"path":"rotation"}},{"sampler":4,"target":{"node":13,"path":"translation"}},{"sampler":5,"target":{"node":2,"path":"rotation"}},{"sampler":6,"target":{"node":4,"path":"rotation"}},{"sampler":7,"target":{"node":10,"path":"rotation"}},{"sampler":8,"target":{"node":10,"path":"translation"}},{"sampler":9,"target":{"node":12,"path":"rotation"}},{"sampler":10,"target":{"node":12,"path":"translation"}},{"sampler":11,"target":{"node":14,"path":"translation"}}]}]}